<mxfile host="app.diagrams.net" agent="Mozilla/5.0 (Windows NT 10.0; Win64; x64) AppleWebKit/537.36 (KHTML, like Gecko) Chrome/133.0.0.0 Safari/537.36" version="26.0.16">
  <diagram name="Page-1" id="mb16lXSDPClhVNuKRIlW">
    <mxGraphModel dx="1750" dy="942" grid="0" gridSize="10" guides="1" tooltips="1" connect="1" arrows="1" fold="1" page="0" pageScale="1" pageWidth="850" pageHeight="1100" math="0" shadow="0">
      <root>
        <mxCell id="0" />
        <mxCell id="1" parent="0" />
        <mxCell id="IlL3a8DfQhgm1rHBtbaU-1" value="ProMed Software(Clinic &#39;s Database)" style="swimlane;horizontal=0;whiteSpace=wrap;html=1;" vertex="1" parent="1">
          <mxGeometry x="210" y="750" width="1200" height="300" as="geometry" />
        </mxCell>
        <mxCell id="IlL3a8DfQhgm1rHBtbaU-7" style="edgeStyle=orthogonalEdgeStyle;rounded=0;orthogonalLoop=1;jettySize=auto;html=1;exitX=1;exitY=0.5;exitDx=0;exitDy=0;entryX=0;entryY=0.5;entryDx=0;entryDy=0;" edge="1" parent="IlL3a8DfQhgm1rHBtbaU-1" source="IlL3a8DfQhgm1rHBtbaU-4" target="IlL3a8DfQhgm1rHBtbaU-6">
          <mxGeometry relative="1" as="geometry" />
        </mxCell>
        <mxCell id="IlL3a8DfQhgm1rHBtbaU-4" value="Open Registration Manu" style="rounded=0;whiteSpace=wrap;html=1;" vertex="1" parent="IlL3a8DfQhgm1rHBtbaU-1">
          <mxGeometry x="51" y="64" width="120" height="60" as="geometry" />
        </mxCell>
        <mxCell id="IlL3a8DfQhgm1rHBtbaU-9" style="edgeStyle=orthogonalEdgeStyle;rounded=0;orthogonalLoop=1;jettySize=auto;html=1;exitX=1;exitY=0.5;exitDx=0;exitDy=0;entryX=0;entryY=0.5;entryDx=0;entryDy=0;" edge="1" parent="IlL3a8DfQhgm1rHBtbaU-1" source="IlL3a8DfQhgm1rHBtbaU-6" target="IlL3a8DfQhgm1rHBtbaU-8">
          <mxGeometry relative="1" as="geometry" />
        </mxCell>
        <mxCell id="IlL3a8DfQhgm1rHBtbaU-10" value="&amp;nbsp;Data Found" style="edgeLabel;html=1;align=center;verticalAlign=middle;resizable=0;points=[];" vertex="1" connectable="0" parent="IlL3a8DfQhgm1rHBtbaU-9">
          <mxGeometry x="-0.4914" relative="1" as="geometry">
            <mxPoint as="offset" />
          </mxGeometry>
        </mxCell>
        <mxCell id="IlL3a8DfQhgm1rHBtbaU-6" value="Enter Patient Name" style="rhombus;whiteSpace=wrap;html=1;" vertex="1" parent="IlL3a8DfQhgm1rHBtbaU-1">
          <mxGeometry x="201" y="49" width="100" height="90" as="geometry" />
        </mxCell>
        <mxCell id="IlL3a8DfQhgm1rHBtbaU-22" style="edgeStyle=orthogonalEdgeStyle;rounded=0;orthogonalLoop=1;jettySize=auto;html=1;exitX=1;exitY=0.5;exitDx=0;exitDy=0;entryX=0;entryY=0.5;entryDx=0;entryDy=0;" edge="1" parent="IlL3a8DfQhgm1rHBtbaU-1" source="IlL3a8DfQhgm1rHBtbaU-8" target="IlL3a8DfQhgm1rHBtbaU-20">
          <mxGeometry relative="1" as="geometry" />
        </mxCell>
        <mxCell id="IlL3a8DfQhgm1rHBtbaU-8" value="Enter Patient&#39;s Weight,&amp;nbsp;&lt;div&gt;Height,&amp;nbsp;&lt;div&gt;Body Temperature,&amp;nbsp;&lt;/div&gt;&lt;div&gt;Blood Pressure,&amp;nbsp;&lt;/div&gt;&lt;div&gt;and Heart Rate&lt;/div&gt;&lt;/div&gt;" style="rounded=0;whiteSpace=wrap;html=1;fillColor=#f8cecc;strokeColor=#b85450;" vertex="1" parent="IlL3a8DfQhgm1rHBtbaU-1">
          <mxGeometry x="451" y="54" width="170" height="80" as="geometry" />
        </mxCell>
        <mxCell id="IlL3a8DfQhgm1rHBtbaU-27" style="edgeStyle=orthogonalEdgeStyle;rounded=0;orthogonalLoop=1;jettySize=auto;html=1;entryX=0;entryY=0.5;entryDx=0;entryDy=0;" edge="1" parent="IlL3a8DfQhgm1rHBtbaU-1" source="IlL3a8DfQhgm1rHBtbaU-13" target="IlL3a8DfQhgm1rHBtbaU-17">
          <mxGeometry relative="1" as="geometry" />
        </mxCell>
        <mxCell id="IlL3a8DfQhgm1rHBtbaU-13" value="Enter Personal Information&lt;div&gt;(ID Number , Name , Address ,&lt;/div&gt;&lt;div&gt;Blood Type , Pre-exist Condition)&amp;nbsp;&lt;/div&gt;" style="rounded=0;whiteSpace=wrap;html=1;fillColor=#e1d5e7;strokeColor=#9673a6;" vertex="1" parent="IlL3a8DfQhgm1rHBtbaU-1">
          <mxGeometry x="171" y="209.07" width="200" height="60" as="geometry" />
        </mxCell>
        <mxCell id="IlL3a8DfQhgm1rHBtbaU-29" style="edgeStyle=orthogonalEdgeStyle;rounded=0;orthogonalLoop=1;jettySize=auto;html=1;entryX=0.5;entryY=1;entryDx=0;entryDy=0;" edge="1" parent="IlL3a8DfQhgm1rHBtbaU-1" source="IlL3a8DfQhgm1rHBtbaU-17" target="IlL3a8DfQhgm1rHBtbaU-8">
          <mxGeometry relative="1" as="geometry" />
        </mxCell>
        <mxCell id="IlL3a8DfQhgm1rHBtbaU-17" value="Save To Database" style="rounded=0;whiteSpace=wrap;html=1;" vertex="1" parent="IlL3a8DfQhgm1rHBtbaU-1">
          <mxGeometry x="476" y="209.07" width="120" height="60" as="geometry" />
        </mxCell>
        <mxCell id="IlL3a8DfQhgm1rHBtbaU-20" value="Patient Added to Doctor Queue" style="rounded=0;whiteSpace=wrap;html=1;" vertex="1" parent="IlL3a8DfQhgm1rHBtbaU-1">
          <mxGeometry x="860" y="64" width="120" height="60" as="geometry" />
        </mxCell>
        <mxCell id="IlL3a8DfQhgm1rHBtbaU-25" style="edgeStyle=orthogonalEdgeStyle;rounded=0;orthogonalLoop=1;jettySize=auto;html=1;exitX=0.5;exitY=1;exitDx=0;exitDy=0;entryX=0.405;entryY=-0.034;entryDx=0;entryDy=0;entryPerimeter=0;" edge="1" parent="IlL3a8DfQhgm1rHBtbaU-1" source="IlL3a8DfQhgm1rHBtbaU-6" target="IlL3a8DfQhgm1rHBtbaU-13">
          <mxGeometry relative="1" as="geometry" />
        </mxCell>
        <mxCell id="IlL3a8DfQhgm1rHBtbaU-26" value="Data Not Found&amp;nbsp;" style="edgeLabel;html=1;align=center;verticalAlign=middle;resizable=0;points=[];" vertex="1" connectable="0" parent="IlL3a8DfQhgm1rHBtbaU-25">
          <mxGeometry x="0.0807" y="-1" relative="1" as="geometry">
            <mxPoint as="offset" />
          </mxGeometry>
        </mxCell>
        <mxCell id="IlL3a8DfQhgm1rHBtbaU-24" value="Amed (NSTDA platform)" style="swimlane;horizontal=0;whiteSpace=wrap;html=1;" vertex="1" parent="1">
          <mxGeometry x="210" y="350" width="1200" height="400" as="geometry" />
        </mxCell>
        <mxCell id="IlL3a8DfQhgm1rHBtbaU-39" style="edgeStyle=orthogonalEdgeStyle;rounded=0;orthogonalLoop=1;jettySize=auto;html=1;exitX=1;exitY=0.5;exitDx=0;exitDy=0;entryX=0;entryY=0.5;entryDx=0;entryDy=0;" edge="1" parent="IlL3a8DfQhgm1rHBtbaU-24" source="IlL3a8DfQhgm1rHBtbaU-31" target="IlL3a8DfQhgm1rHBtbaU-38">
          <mxGeometry relative="1" as="geometry" />
        </mxCell>
        <mxCell id="IlL3a8DfQhgm1rHBtbaU-31" value="Open Register Manu" style="rounded=0;whiteSpace=wrap;html=1;" vertex="1" parent="IlL3a8DfQhgm1rHBtbaU-24">
          <mxGeometry x="50" y="170" width="120" height="60" as="geometry" />
        </mxCell>
        <mxCell id="IlL3a8DfQhgm1rHBtbaU-41" style="edgeStyle=orthogonalEdgeStyle;rounded=0;orthogonalLoop=1;jettySize=auto;html=1;exitX=1;exitY=0.5;exitDx=0;exitDy=0;entryX=0;entryY=0.5;entryDx=0;entryDy=0;" edge="1" parent="IlL3a8DfQhgm1rHBtbaU-24" source="IlL3a8DfQhgm1rHBtbaU-38" target="IlL3a8DfQhgm1rHBtbaU-40">
          <mxGeometry relative="1" as="geometry" />
        </mxCell>
        <mxCell id="IlL3a8DfQhgm1rHBtbaU-42" value="Yes" style="edgeLabel;html=1;align=center;verticalAlign=middle;resizable=0;points=[];" vertex="1" connectable="0" parent="IlL3a8DfQhgm1rHBtbaU-41">
          <mxGeometry x="-0.3333" y="-1" relative="1" as="geometry">
            <mxPoint as="offset" />
          </mxGeometry>
        </mxCell>
        <mxCell id="IlL3a8DfQhgm1rHBtbaU-44" style="edgeStyle=orthogonalEdgeStyle;rounded=0;orthogonalLoop=1;jettySize=auto;html=1;exitX=0.5;exitY=0;exitDx=0;exitDy=0;entryX=0;entryY=0.5;entryDx=0;entryDy=0;" edge="1" parent="IlL3a8DfQhgm1rHBtbaU-24" source="IlL3a8DfQhgm1rHBtbaU-38" target="IlL3a8DfQhgm1rHBtbaU-43">
          <mxGeometry relative="1" as="geometry" />
        </mxCell>
        <mxCell id="IlL3a8DfQhgm1rHBtbaU-45" value="No" style="edgeLabel;html=1;align=center;verticalAlign=middle;resizable=0;points=[];" vertex="1" connectable="0" parent="IlL3a8DfQhgm1rHBtbaU-44">
          <mxGeometry x="-0.3961" y="3" relative="1" as="geometry">
            <mxPoint y="-1" as="offset" />
          </mxGeometry>
        </mxCell>
        <mxCell id="IlL3a8DfQhgm1rHBtbaU-38" value="&amp;nbsp;Is Data From&amp;nbsp;&lt;div&gt;ID Card Display&amp;nbsp;&lt;/div&gt;" style="rhombus;whiteSpace=wrap;html=1;" vertex="1" parent="IlL3a8DfQhgm1rHBtbaU-24">
          <mxGeometry x="200" y="155" width="120" height="90" as="geometry" />
        </mxCell>
        <mxCell id="IlL3a8DfQhgm1rHBtbaU-48" style="edgeStyle=orthogonalEdgeStyle;rounded=0;orthogonalLoop=1;jettySize=auto;html=1;exitX=1;exitY=0.5;exitDx=0;exitDy=0;entryX=0;entryY=0.5;entryDx=0;entryDy=0;" edge="1" parent="IlL3a8DfQhgm1rHBtbaU-24" source="IlL3a8DfQhgm1rHBtbaU-40" target="IlL3a8DfQhgm1rHBtbaU-47">
          <mxGeometry relative="1" as="geometry" />
        </mxCell>
        <mxCell id="IlL3a8DfQhgm1rHBtbaU-40" value="Click Verify Medical Eligibility Button" style="rounded=0;whiteSpace=wrap;html=1;" vertex="1" parent="IlL3a8DfQhgm1rHBtbaU-24">
          <mxGeometry x="380" y="170" width="120" height="60" as="geometry" />
        </mxCell>
        <mxCell id="IlL3a8DfQhgm1rHBtbaU-46" style="edgeStyle=orthogonalEdgeStyle;rounded=0;orthogonalLoop=1;jettySize=auto;html=1;exitX=1;exitY=0.5;exitDx=0;exitDy=0;entryX=0.5;entryY=0;entryDx=0;entryDy=0;" edge="1" parent="IlL3a8DfQhgm1rHBtbaU-24" source="IlL3a8DfQhgm1rHBtbaU-43" target="IlL3a8DfQhgm1rHBtbaU-40">
          <mxGeometry relative="1" as="geometry" />
        </mxCell>
        <mxCell id="IlL3a8DfQhgm1rHBtbaU-43" value="Press Bottom Left Button to Retry ID Card Reading" style="rounded=0;whiteSpace=wrap;html=1;" vertex="1" parent="IlL3a8DfQhgm1rHBtbaU-24">
          <mxGeometry x="290" y="70" width="120" height="60" as="geometry" />
        </mxCell>
        <mxCell id="IlL3a8DfQhgm1rHBtbaU-50" style="edgeStyle=orthogonalEdgeStyle;rounded=0;orthogonalLoop=1;jettySize=auto;html=1;exitX=1;exitY=0.5;exitDx=0;exitDy=0;entryX=0;entryY=0.5;entryDx=0;entryDy=0;" edge="1" parent="IlL3a8DfQhgm1rHBtbaU-24" source="IlL3a8DfQhgm1rHBtbaU-47" target="IlL3a8DfQhgm1rHBtbaU-49">
          <mxGeometry relative="1" as="geometry" />
        </mxCell>
        <mxCell id="IlL3a8DfQhgm1rHBtbaU-47" value="Enter Personal Information&lt;div&gt;&amp;nbsp;( E.g. Address,&amp;nbsp;&lt;/div&gt;&lt;div&gt;Allergy History,&amp;nbsp;&lt;/div&gt;&lt;div&gt;Pre-existing Conditions)&lt;/div&gt;" style="rounded=0;whiteSpace=wrap;html=1;fillColor=#e1d5e7;strokeColor=#9673a6;" vertex="1" parent="IlL3a8DfQhgm1rHBtbaU-24">
          <mxGeometry x="530" y="170" width="160" height="60" as="geometry" />
        </mxCell>
        <mxCell id="IlL3a8DfQhgm1rHBtbaU-53" style="edgeStyle=orthogonalEdgeStyle;rounded=0;orthogonalLoop=1;jettySize=auto;html=1;exitX=0.5;exitY=1;exitDx=0;exitDy=0;entryX=0.5;entryY=0;entryDx=0;entryDy=0;" edge="1" parent="IlL3a8DfQhgm1rHBtbaU-24" source="IlL3a8DfQhgm1rHBtbaU-49" target="IlL3a8DfQhgm1rHBtbaU-51">
          <mxGeometry relative="1" as="geometry" />
        </mxCell>
        <mxCell id="IlL3a8DfQhgm1rHBtbaU-49" value="Submit Registration" style="rounded=0;whiteSpace=wrap;html=1;" vertex="1" parent="IlL3a8DfQhgm1rHBtbaU-24">
          <mxGeometry x="720" y="170" width="120" height="60" as="geometry" />
        </mxCell>
        <mxCell id="IlL3a8DfQhgm1rHBtbaU-54" style="edgeStyle=orthogonalEdgeStyle;rounded=0;orthogonalLoop=1;jettySize=auto;html=1;exitX=0;exitY=0.5;exitDx=0;exitDy=0;entryX=1;entryY=0.5;entryDx=0;entryDy=0;" edge="1" parent="IlL3a8DfQhgm1rHBtbaU-24" source="IlL3a8DfQhgm1rHBtbaU-51" target="IlL3a8DfQhgm1rHBtbaU-52">
          <mxGeometry relative="1" as="geometry" />
        </mxCell>
        <mxCell id="IlL3a8DfQhgm1rHBtbaU-51" value="Click Gear Icon to Verify Data" style="rounded=0;whiteSpace=wrap;html=1;" vertex="1" parent="IlL3a8DfQhgm1rHBtbaU-24">
          <mxGeometry x="720" y="281" width="120" height="60" as="geometry" />
        </mxCell>
        <mxCell id="IlL3a8DfQhgm1rHBtbaU-68" style="edgeStyle=orthogonalEdgeStyle;rounded=0;orthogonalLoop=1;jettySize=auto;html=1;exitX=0;exitY=0.5;exitDx=0;exitDy=0;entryX=1;entryY=0.5;entryDx=0;entryDy=0;" edge="1" parent="IlL3a8DfQhgm1rHBtbaU-24" source="IlL3a8DfQhgm1rHBtbaU-52" target="IlL3a8DfQhgm1rHBtbaU-55">
          <mxGeometry relative="1" as="geometry" />
        </mxCell>
        <mxCell id="IlL3a8DfQhgm1rHBtbaU-52" value="&amp;nbsp;Enter HN Number, and Save Setting" style="rounded=0;whiteSpace=wrap;html=1;" vertex="1" parent="IlL3a8DfQhgm1rHBtbaU-24">
          <mxGeometry x="540" y="281" width="120" height="60" as="geometry" />
        </mxCell>
        <mxCell id="IlL3a8DfQhgm1rHBtbaU-69" style="edgeStyle=orthogonalEdgeStyle;rounded=0;orthogonalLoop=1;jettySize=auto;html=1;exitX=0;exitY=0.5;exitDx=0;exitDy=0;entryX=1;entryY=0.5;entryDx=0;entryDy=0;" edge="1" parent="IlL3a8DfQhgm1rHBtbaU-24" source="IlL3a8DfQhgm1rHBtbaU-55" target="IlL3a8DfQhgm1rHBtbaU-56">
          <mxGeometry relative="1" as="geometry" />
        </mxCell>
        <mxCell id="IlL3a8DfQhgm1rHBtbaU-55" value="Open Daily Report Page" style="rounded=0;whiteSpace=wrap;html=1;" vertex="1" parent="IlL3a8DfQhgm1rHBtbaU-24">
          <mxGeometry x="390" y="281" width="120" height="60" as="geometry" />
        </mxCell>
        <mxCell id="IlL3a8DfQhgm1rHBtbaU-58" style="edgeStyle=orthogonalEdgeStyle;rounded=0;orthogonalLoop=1;jettySize=auto;html=1;exitX=0;exitY=0.5;exitDx=0;exitDy=0;entryX=1;entryY=0.5;entryDx=0;entryDy=0;" edge="1" parent="IlL3a8DfQhgm1rHBtbaU-24" source="IlL3a8DfQhgm1rHBtbaU-56" target="IlL3a8DfQhgm1rHBtbaU-57">
          <mxGeometry relative="1" as="geometry" />
        </mxCell>
        <mxCell id="IlL3a8DfQhgm1rHBtbaU-56" value="Enter Patient&#39;s&amp;nbsp;&lt;div&gt;&lt;div&gt;Body Temperature,&amp;nbsp;&lt;/div&gt;&lt;div&gt;Blood Pressure,&amp;nbsp;&lt;/div&gt;&lt;div&gt;and Heart Rate&lt;/div&gt;&lt;/div&gt;" style="rounded=0;whiteSpace=wrap;html=1;fillColor=#f8cecc;strokeColor=#b85450;" vertex="1" parent="IlL3a8DfQhgm1rHBtbaU-24">
          <mxGeometry x="190" y="271" width="170" height="80" as="geometry" />
        </mxCell>
        <mxCell id="IlL3a8DfQhgm1rHBtbaU-57" value="Submit Report" style="rounded=0;whiteSpace=wrap;html=1;" vertex="1" parent="IlL3a8DfQhgm1rHBtbaU-24">
          <mxGeometry x="50" y="281" width="120" height="60" as="geometry" />
        </mxCell>
        <mxCell id="IlL3a8DfQhgm1rHBtbaU-32" value="National ID Card Reader" style="swimlane;horizontal=0;whiteSpace=wrap;html=1;" vertex="1" parent="1">
          <mxGeometry x="210" y="90" width="1200" height="260" as="geometry" />
        </mxCell>
        <mxCell id="IlL3a8DfQhgm1rHBtbaU-37" style="edgeStyle=orthogonalEdgeStyle;rounded=0;orthogonalLoop=1;jettySize=auto;html=1;exitX=1;exitY=0.5;exitDx=0;exitDy=0;entryX=0;entryY=0.5;entryDx=0;entryDy=0;" edge="1" parent="IlL3a8DfQhgm1rHBtbaU-32" source="IlL3a8DfQhgm1rHBtbaU-33" target="IlL3a8DfQhgm1rHBtbaU-34">
          <mxGeometry relative="1" as="geometry" />
        </mxCell>
        <mxCell id="IlL3a8DfQhgm1rHBtbaU-33" value="START" style="rounded=1;whiteSpace=wrap;html=1;" vertex="1" parent="IlL3a8DfQhgm1rHBtbaU-32">
          <mxGeometry x="40" y="100" width="120" height="60" as="geometry" />
        </mxCell>
        <mxCell id="IlL3a8DfQhgm1rHBtbaU-34" value="Insert ID Card Into&amp;nbsp;&lt;div&gt;Card Reader&lt;/div&gt;" style="rounded=0;whiteSpace=wrap;html=1;" vertex="1" parent="IlL3a8DfQhgm1rHBtbaU-32">
          <mxGeometry x="190" y="100" width="120" height="60" as="geometry" />
        </mxCell>
        <mxCell id="IlL3a8DfQhgm1rHBtbaU-66" style="edgeStyle=orthogonalEdgeStyle;rounded=0;orthogonalLoop=1;jettySize=auto;html=1;entryX=0;entryY=0.5;entryDx=0;entryDy=0;" edge="1" parent="IlL3a8DfQhgm1rHBtbaU-32" source="IlL3a8DfQhgm1rHBtbaU-62" target="IlL3a8DfQhgm1rHBtbaU-65">
          <mxGeometry relative="1" as="geometry" />
        </mxCell>
        <mxCell id="IlL3a8DfQhgm1rHBtbaU-62" value="Remove ID Card And Return to Patient" style="rounded=0;whiteSpace=wrap;html=1;" vertex="1" parent="IlL3a8DfQhgm1rHBtbaU-32">
          <mxGeometry x="860" y="100" width="120" height="60" as="geometry" />
        </mxCell>
        <mxCell id="IlL3a8DfQhgm1rHBtbaU-65" value="END" style="rounded=1;whiteSpace=wrap;html=1;" vertex="1" parent="IlL3a8DfQhgm1rHBtbaU-32">
          <mxGeometry x="1050" y="100" width="120" height="60" as="geometry" />
        </mxCell>
        <mxCell id="IlL3a8DfQhgm1rHBtbaU-36" style="edgeStyle=orthogonalEdgeStyle;rounded=0;orthogonalLoop=1;jettySize=auto;html=1;exitX=0.5;exitY=1;exitDx=0;exitDy=0;entryX=0.5;entryY=0;entryDx=0;entryDy=0;" edge="1" parent="1" source="IlL3a8DfQhgm1rHBtbaU-34" target="IlL3a8DfQhgm1rHBtbaU-31">
          <mxGeometry relative="1" as="geometry" />
        </mxCell>
        <mxCell id="IlL3a8DfQhgm1rHBtbaU-60" style="edgeStyle=orthogonalEdgeStyle;rounded=0;orthogonalLoop=1;jettySize=auto;html=1;exitX=0.5;exitY=1;exitDx=0;exitDy=0;entryX=0.5;entryY=0;entryDx=0;entryDy=0;" edge="1" parent="1" source="IlL3a8DfQhgm1rHBtbaU-57" target="IlL3a8DfQhgm1rHBtbaU-4">
          <mxGeometry relative="1" as="geometry" />
        </mxCell>
        <mxCell id="IlL3a8DfQhgm1rHBtbaU-63" style="edgeStyle=orthogonalEdgeStyle;rounded=0;orthogonalLoop=1;jettySize=auto;html=1;exitX=0.5;exitY=0;exitDx=0;exitDy=0;entryX=0.5;entryY=1;entryDx=0;entryDy=0;" edge="1" parent="1" source="IlL3a8DfQhgm1rHBtbaU-20" target="IlL3a8DfQhgm1rHBtbaU-62">
          <mxGeometry relative="1" as="geometry" />
        </mxCell>
      </root>
    </mxGraphModel>
  </diagram>
</mxfile>
